<svg width="189" height="106" viewBox="0 0 189 106" fill="none" xmlns="http://www.w3.org/2000/svg">
<path d="M39.8489 78.4228C32.5297 78.4228 26.837 84.4552 26.837 92.2113C26.837 99.9674 32.5297 106 39.8489 106C47.1681 106 52.8609 99.9674 52.8609 92.2113C52.8609 84.4552 47.1681 78.4228 39.8489 78.4228ZM117.107 0H110.601V16.8048H134.999L117.107 0ZM0.81317 94.7967H17.0781C17.0781 94.7967 17.8913 68.9431 41.4754 68.9431C58.9602 68.9431 61.8065 94.7967 61.8065 94.7967H102.469V0H0L0.81317 94.7967ZM154.516 78.4228C147.197 78.4228 141.505 84.4552 141.505 92.2113C141.505 99.9674 147.197 106 154.516 106C161.836 106 167.528 99.9674 167.528 92.2113C167.528 84.4552 161.429 78.4228 154.516 78.4228ZM139.065 21.5447H110.601V94.7967H134.999C134.999 94.7967 131.746 73.252 155.33 73.252C173.221 73.252 172.814 94.7967 172.814 94.7967H187.86L188.673 62.4797L139.065 21.5447ZM134.999 77.561H118.734V68.9431H134.999V77.561ZM133.372 62.0487L117.107 51.7073V27.5772H133.372L175.661 62.0487H133.372Z" fill="white" fill-opacity="0.4"/>
</svg>
